<?xml version="1.0" encoding="utf-8"?>
<!-- Generator: Adobe Illustrator 16.0.0, SVG Export Plug-In . SVG Version: 6.00 Build 0)  -->
<!DOCTYPE svg PUBLIC "-//W3C//DTD SVG 1.1//EN" "http://www.w3.org/Graphics/SVG/1.1/DTD/svg11.dtd">
<svg version="1.1" id="Layer_1" xmlns="http://www.w3.org/2000/svg" xmlns:xlink="http://www.w3.org/1999/xlink" x="0px" y="0px"
	 width="16px" height="16px" viewBox="0 0 16 16" enable-background="new 0 0 16 16" xml:space="preserve">
<g>
	<path fill-rule="evenodd" clip-rule="evenodd" fill="#FFFFFF" d="M0.167,0.587c0.35-0.411,0.688-0.55,1.108-0.434
		C1.777,0.292,1.862,0.611,1.86,0.978C1.853,2.426,1.862,3.874,1.853,5.322C1.851,5.564,1.915,5.725,2.199,5.885
		C3.998,6.898,3.998,9.028,2.2,10.042c-0.282,0.159-0.349,0.319-0.347,0.562c0.01,1.473,0.009,2.946,0.002,4.419
		c-0.002,0.574-0.503,0.901-1.107,0.748c-0.288-0.073-0.429-0.255-0.581-0.431C0.167,10.422,0.167,5.505,0.167,0.587z"/>
	<path fill-rule="evenodd" clip-rule="evenodd" fill="#FFFFFF" d="M5.29,7.945c0.035-2.779,0.908-5.254,2.652-7.414
		C8.106,0.327,8.278,0.13,8.533,0.048c0.346-0.11,0.651-0.005,0.888,0.255c0.272,0.3,0.303,0.662,0.123,1.013
		C9.427,1.544,9.255,1.745,9.095,1.948C6.394,5.382,6.404,10.594,9.12,14.004c0.119,0.148,0.244,0.292,0.349,0.45
		c0.289,0.434,0.223,0.959-0.146,1.262c-0.385,0.316-0.85,0.275-1.228-0.154c-0.887-1.006-1.553-2.154-2.032-3.407
		c-0.252-0.662-0.459-1.342-0.581-2.04C5.356,9.4,5.266,8.678,5.29,7.945z"/>
	<path fill-rule="evenodd" clip-rule="evenodd" fill="#FFFFFF" d="M8.865,8.015c0.033-2.266,0.794-4.157,2.312-5.729
		c0.512-0.529,1.217-0.467,1.513,0.108c0.254,0.492,0.018,0.864-0.304,1.208c-0.783,0.834-1.323,1.797-1.571,2.925
		c-0.461,2.103,0.018,3.965,1.395,5.602c0.101,0.119,0.213,0.226,0.311,0.347c0.367,0.452,0.361,0.954-0.011,1.297
		c-0.359,0.331-0.892,0.304-1.293-0.095c-0.754-0.749-1.322-1.626-1.738-2.608C9.056,10.068,8.889,9.018,8.865,8.015z"/>
	<path fill-rule="evenodd" clip-rule="evenodd" fill="#FFFFFF" d="M15.982,4.566c0,0.188-0.001,0.376-0.001,0.563
		c-0.163,0.267-0.396,0.454-0.643,0.642c-1.486,1.124-1.504,3.187-0.052,4.349c0.238,0.19,0.466,0.393,0.699,0.589
		c0,0.21,0,0.421-0.001,0.632c-0.504,0.729-0.889,0.8-1.624,0.3c-2.546-1.729-2.55-5.623-0.007-7.355
		C15.092,3.784,15.471,3.849,15.982,4.566z"/>
</g>
</svg>
